<?xml version="1.0" encoding="UTF-8" standalone="no"?>
<!DOCTYPE svg PUBLIC "-//W3C//DTD SVG 1.1//EN"
 "http://www.w3.org/Graphics/SVG/1.1/DTD/svg11.dtd">
<!-- Generated by graphviz version 2.40.1 (20161225.0304)
 -->
<!-- Title: controllers_diagram Pages: 1 -->
<svg width="806pt" height="739pt"
 viewBox="0.00 0.00 805.86 739.00" xmlns="http://www.w3.org/2000/svg" xmlns:xlink="http://www.w3.org/1999/xlink">
<g id="graph0" class="graph" transform="scale(1 1) rotate(0) translate(4 735)">
<title>controllers_diagram</title>
<polygon fill="transparent" stroke="transparent" points="-4,4 -4,-735 801.8555,-735 801.8555,4 -4,4"/>
<!-- _diagram_info -->
<g id="node1" class="node">
<title>_diagram_info</title>
<text text-anchor="start" x="144" y="-109.6" font-family="Times,serif" font-size="13.00" fill="#000000">Controllers diagram</text>
<text text-anchor="start" x="144" y="-96.6" font-family="Times,serif" font-size="13.00" fill="#000000">Date: Sep 29 2017 &#45; 17:27</text>
<text text-anchor="start" x="144" y="-83.6" font-family="Times,serif" font-size="13.00" fill="#000000">Migration version: 20170927222719</text>
<text text-anchor="start" x="144" y="-70.6" font-family="Times,serif" font-size="13.00" fill="#000000">Generated by RailRoady 1.5.3</text>
<text text-anchor="start" x="144" y="-57.6" font-family="Times,serif" font-size="13.00" fill="#000000">http://railroady.prestonlee.com</text>
</g>
<!-- AccountActivationsController -->
<g id="node2" class="node">
<title>AccountActivationsController</title>
<path fill="none" stroke="#000000" d="M386,-17.5C386,-17.5 547.5176,-17.5 547.5176,-17.5 553.5176,-17.5 559.5176,-23.5 559.5176,-29.5 559.5176,-29.5 559.5176,-95.5 559.5176,-95.5 559.5176,-101.5 553.5176,-107.5 547.5176,-107.5 547.5176,-107.5 386,-107.5 386,-107.5 380,-107.5 374,-101.5 374,-95.5 374,-95.5 374,-29.5 374,-29.5 374,-23.5 380,-17.5 386,-17.5"/>
<text text-anchor="middle" x="466.7588" y="-92.3" font-family="Times,serif" font-size="14.00" fill="#000000">AccountActivationsController</text>
<polyline fill="none" stroke="#000000" points="374,-85.5 559.5176,-85.5 "/>
<text text-anchor="start" x="382" y="-70.3" font-family="Times,serif" font-size="14.00" fill="#000000">edit</text>
<polyline fill="none" stroke="#000000" points="374,-63.5 559.5176,-63.5 "/>
<polyline fill="none" stroke="#000000" points="374,-39.5 559.5176,-39.5 "/>
<text text-anchor="start" x="382" y="-24.3" font-family="Times,serif" font-size="14.00" fill="#000000">_layout</text>
</g>
<!-- ApplicationController -->
<g id="node3" class="node">
<title>ApplicationController</title>
<path fill="none" stroke="#000000" d="M505,-408.5C505,-408.5 632.2969,-408.5 632.2969,-408.5 638.2969,-408.5 644.2969,-414.5 644.2969,-420.5 644.2969,-420.5 644.2969,-586.5 644.2969,-586.5 644.2969,-592.5 638.2969,-598.5 632.2969,-598.5 632.2969,-598.5 505,-598.5 505,-598.5 499,-598.5 493,-592.5 493,-586.5 493,-586.5 493,-420.5 493,-420.5 493,-414.5 499,-408.5 505,-408.5"/>
<text text-anchor="middle" x="568.6484" y="-583.3" font-family="Times,serif" font-size="14.00" fill="#000000">ApplicationController</text>
<polyline fill="none" stroke="#000000" points="493,-576.5 644.2969,-576.5 "/>
<polyline fill="none" stroke="#000000" points="493,-552.5 644.2969,-552.5 "/>
<polyline fill="none" stroke="#000000" points="493,-528.5 644.2969,-528.5 "/>
<text text-anchor="start" x="501" y="-513.3" font-family="Times,serif" font-size="14.00" fill="#000000">user_not_authorized</text>
<text text-anchor="start" x="501" y="-499.3" font-family="Times,serif" font-size="14.00" fill="#000000">after_invite_path_for</text>
<text text-anchor="start" x="501" y="-485.3" font-family="Times,serif" font-size="14.00" fill="#000000">after_sign_out_path_for</text>
<text text-anchor="start" x="501" y="-471.3" font-family="Times,serif" font-size="14.00" fill="#000000">current_account</text>
<text text-anchor="start" x="501" y="-457.3" font-family="Times,serif" font-size="14.00" fill="#000000">current_user</text>
<text text-anchor="start" x="501" y="-443.3" font-family="Times,serif" font-size="14.00" fill="#000000">logged_in_user</text>
<text text-anchor="start" x="501" y="-429.3" font-family="Times,serif" font-size="14.00" fill="#000000">set_mailer_host</text>
<text text-anchor="start" x="501" y="-415.3" font-family="Times,serif" font-size="14.00" fill="#000000">_layout</text>
</g>
<!-- ContactsController -->
<g id="node4" class="node">
<title>ContactsController</title>
<path fill="none" stroke="#000000" d="M114,-153.5C114,-153.5 212.5381,-153.5 212.5381,-153.5 218.5381,-153.5 224.5381,-159.5 224.5381,-165.5 224.5381,-165.5 224.5381,-259.5 224.5381,-259.5 224.5381,-265.5 218.5381,-271.5 212.5381,-271.5 212.5381,-271.5 114,-271.5 114,-271.5 108,-271.5 102,-265.5 102,-259.5 102,-259.5 102,-165.5 102,-165.5 102,-159.5 108,-153.5 114,-153.5"/>
<text text-anchor="middle" x="163.269" y="-256.3" font-family="Times,serif" font-size="14.00" fill="#000000">ContactsController</text>
<polyline fill="none" stroke="#000000" points="102,-249.5 224.5381,-249.5 "/>
<text text-anchor="start" x="110" y="-234.3" font-family="Times,serif" font-size="14.00" fill="#000000">create</text>
<text text-anchor="start" x="110" y="-220.3" font-family="Times,serif" font-size="14.00" fill="#000000">new</text>
<polyline fill="none" stroke="#000000" points="102,-213.5 224.5381,-213.5 "/>
<polyline fill="none" stroke="#000000" points="102,-189.5 224.5381,-189.5 "/>
<text text-anchor="start" x="110" y="-174.3" font-family="Times,serif" font-size="14.00" fill="#000000">_layout</text>
<text text-anchor="start" x="110" y="-160.3" font-family="Times,serif" font-size="14.00" fill="#000000">contact_params</text>
</g>
<!-- PagesController -->
<g id="node5" class="node">
<title>PagesController</title>
<path fill="none" stroke="#000000" d="M12,-17.5C12,-17.5 94.207,-17.5 94.207,-17.5 100.207,-17.5 106.207,-23.5 106.207,-29.5 106.207,-29.5 106.207,-109.5 106.207,-109.5 106.207,-115.5 100.207,-121.5 94.207,-121.5 94.207,-121.5 12,-121.5 12,-121.5 6,-121.5 0,-115.5 0,-109.5 0,-109.5 0,-29.5 0,-29.5 0,-23.5 6,-17.5 12,-17.5"/>
<text text-anchor="middle" x="53.1035" y="-106.3" font-family="Times,serif" font-size="14.00" fill="#000000">PagesController</text>
<polyline fill="none" stroke="#000000" points="0,-99.5 106.207,-99.5 "/>
<text text-anchor="start" x="8" y="-84.3" font-family="Times,serif" font-size="14.00" fill="#000000">about</text>
<text text-anchor="start" x="8" y="-70.3" font-family="Times,serif" font-size="14.00" fill="#000000">home</text>
<polyline fill="none" stroke="#000000" points="0,-63.5 106.207,-63.5 "/>
<polyline fill="none" stroke="#000000" points="0,-39.5 106.207,-39.5 "/>
<text text-anchor="start" x="8" y="-24.3" font-family="Times,serif" font-size="14.00" fill="#000000">_layout</text>
</g>
<!-- PasswordResetsController -->
<g id="node6" class="node">
<title>PasswordResetsController</title>
<path fill="none" stroke="#000000" d="M267,-153.5C267,-153.5 406.7656,-153.5 406.7656,-153.5 412.7656,-153.5 418.7656,-159.5 418.7656,-165.5 418.7656,-165.5 418.7656,-343.5 418.7656,-343.5 418.7656,-349.5 412.7656,-355.5 406.7656,-355.5 406.7656,-355.5 267,-355.5 267,-355.5 261,-355.5 255,-349.5 255,-343.5 255,-343.5 255,-165.5 255,-165.5 255,-159.5 261,-153.5 267,-153.5"/>
<text text-anchor="middle" x="336.8828" y="-340.3" font-family="Times,serif" font-size="14.00" fill="#000000">PasswordResetsController</text>
<polyline fill="none" stroke="#000000" points="255,-333.5 418.7656,-333.5 "/>
<text text-anchor="start" x="263" y="-318.3" font-family="Times,serif" font-size="14.00" fill="#000000">create</text>
<text text-anchor="start" x="263" y="-304.3" font-family="Times,serif" font-size="14.00" fill="#000000">edit</text>
<text text-anchor="start" x="263" y="-290.3" font-family="Times,serif" font-size="14.00" fill="#000000">new</text>
<text text-anchor="start" x="263" y="-276.3" font-family="Times,serif" font-size="14.00" fill="#000000">update</text>
<polyline fill="none" stroke="#000000" points="255,-269.5 418.7656,-269.5 "/>
<polyline fill="none" stroke="#000000" points="255,-245.5 418.7656,-245.5 "/>
<text text-anchor="start" x="263" y="-230.3" font-family="Times,serif" font-size="14.00" fill="#000000">_layout</text>
<text text-anchor="start" x="263" y="-216.3" font-family="Times,serif" font-size="14.00" fill="#000000">both_passwords_blank?</text>
<text text-anchor="start" x="263" y="-202.3" font-family="Times,serif" font-size="14.00" fill="#000000">check_expiration</text>
<text text-anchor="start" x="263" y="-188.3" font-family="Times,serif" font-size="14.00" fill="#000000">get_user</text>
<text text-anchor="start" x="263" y="-174.3" font-family="Times,serif" font-size="14.00" fill="#000000">user_params</text>
<text text-anchor="start" x="263" y="-160.3" font-family="Times,serif" font-size="14.00" fill="#000000">valid_user</text>
</g>
<!-- ProfilesController -->
<g id="node7" class="node">
<title>ProfilesController</title>
<path fill="none" stroke="#000000" d="M692,-374.5C692,-374.5 785.8555,-374.5 785.8555,-374.5 791.8555,-374.5 797.8555,-380.5 797.8555,-386.5 797.8555,-386.5 797.8555,-522.5 797.8555,-522.5 797.8555,-528.5 791.8555,-534.5 785.8555,-534.5 785.8555,-534.5 692,-534.5 692,-534.5 686,-534.5 680,-528.5 680,-522.5 680,-522.5 680,-386.5 680,-386.5 680,-380.5 686,-374.5 692,-374.5"/>
<text text-anchor="middle" x="738.9277" y="-519.3" font-family="Times,serif" font-size="14.00" fill="#000000">ProfilesController</text>
<polyline fill="none" stroke="#000000" points="680,-512.5 797.8555,-512.5 "/>
<text text-anchor="start" x="688" y="-497.3" font-family="Times,serif" font-size="14.00" fill="#000000">create</text>
<text text-anchor="start" x="688" y="-483.3" font-family="Times,serif" font-size="14.00" fill="#000000">edit</text>
<text text-anchor="start" x="688" y="-469.3" font-family="Times,serif" font-size="14.00" fill="#000000">new</text>
<text text-anchor="start" x="688" y="-455.3" font-family="Times,serif" font-size="14.00" fill="#000000">update</text>
<polyline fill="none" stroke="#000000" points="680,-448.5 797.8555,-448.5 "/>
<polyline fill="none" stroke="#000000" points="680,-424.5 797.8555,-424.5 "/>
<text text-anchor="start" x="688" y="-409.3" font-family="Times,serif" font-size="14.00" fill="#000000">_layout</text>
<text text-anchor="start" x="688" y="-395.3" font-family="Times,serif" font-size="14.00" fill="#000000">only_current_user</text>
<text text-anchor="start" x="688" y="-381.3" font-family="Times,serif" font-size="14.00" fill="#000000">profile_params</text>
</g>
<!-- SessionsController -->
<g id="node8" class="node">
<title>SessionsController</title>
<path fill="none" stroke="#000000" d="M352,-612.5C352,-612.5 449.7793,-612.5 449.7793,-612.5 455.7793,-612.5 461.7793,-618.5 461.7793,-624.5 461.7793,-624.5 461.7793,-718.5 461.7793,-718.5 461.7793,-724.5 455.7793,-730.5 449.7793,-730.5 449.7793,-730.5 352,-730.5 352,-730.5 346,-730.5 340,-724.5 340,-718.5 340,-718.5 340,-624.5 340,-624.5 340,-618.5 346,-612.5 352,-612.5"/>
<text text-anchor="middle" x="400.8896" y="-715.3" font-family="Times,serif" font-size="14.00" fill="#000000">SessionsController</text>
<polyline fill="none" stroke="#000000" points="340,-708.5 461.7793,-708.5 "/>
<text text-anchor="start" x="348" y="-693.3" font-family="Times,serif" font-size="14.00" fill="#000000">create</text>
<text text-anchor="start" x="348" y="-679.3" font-family="Times,serif" font-size="14.00" fill="#000000">destroy</text>
<text text-anchor="start" x="348" y="-665.3" font-family="Times,serif" font-size="14.00" fill="#000000">new</text>
<polyline fill="none" stroke="#000000" points="340,-658.5 461.7793,-658.5 "/>
<polyline fill="none" stroke="#000000" points="340,-634.5 461.7793,-634.5 "/>
<text text-anchor="start" x="348" y="-619.3" font-family="Times,serif" font-size="14.00" fill="#000000">_layout</text>
</g>
<!-- Users::CompaniesController -->
<g id="node9" class="node">
<title>Users::CompaniesController</title>
<path fill="none" stroke="#000000" d="M607,-.5C607,-.5 759.2002,-.5 759.2002,-.5 765.2002,-.5 771.2002,-6.5 771.2002,-12.5 771.2002,-12.5 771.2002,-134.5 771.2002,-134.5 771.2002,-140.5 765.2002,-146.5 759.2002,-146.5 759.2002,-146.5 607,-146.5 607,-146.5 601,-146.5 595,-140.5 595,-134.5 595,-134.5 595,-12.5 595,-12.5 595,-6.5 601,-.5 607,-.5"/>
<text text-anchor="middle" x="683.1001" y="-131.3" font-family="Times,serif" font-size="14.00" fill="#000000">Users::CompaniesController</text>
<polyline fill="none" stroke="#000000" points="595,-124.5 771.2002,-124.5 "/>
<text text-anchor="start" x="603" y="-109.3" font-family="Times,serif" font-size="14.00" fill="#000000">create</text>
<text text-anchor="start" x="603" y="-95.3" font-family="Times,serif" font-size="14.00" fill="#000000">destroy</text>
<text text-anchor="start" x="603" y="-81.3" font-family="Times,serif" font-size="14.00" fill="#000000">index</text>
<text text-anchor="start" x="603" y="-67.3" font-family="Times,serif" font-size="14.00" fill="#000000">new</text>
<polyline fill="none" stroke="#000000" points="595,-60.5 771.2002,-60.5 "/>
<polyline fill="none" stroke="#000000" points="595,-36.5 771.2002,-36.5 "/>
<text text-anchor="start" x="603" y="-21.3" font-family="Times,serif" font-size="14.00" fill="#000000">_layout</text>
<text text-anchor="start" x="603" y="-7.3" font-family="Times,serif" font-size="14.00" fill="#000000">company_params</text>
</g>
<!-- Users::DealsController -->
<g id="node10" class="node">
<title>Users::DealsController</title>
<path fill="none" stroke="#000000" d="M607,-187.5C607,-187.5 728.083,-187.5 728.083,-187.5 734.083,-187.5 740.083,-193.5 740.083,-199.5 740.083,-199.5 740.083,-335.5 740.083,-335.5 740.083,-341.5 734.083,-347.5 728.083,-347.5 728.083,-347.5 607,-347.5 607,-347.5 601,-347.5 595,-341.5 595,-335.5 595,-335.5 595,-199.5 595,-199.5 595,-193.5 601,-187.5 607,-187.5"/>
<text text-anchor="middle" x="667.5415" y="-332.3" font-family="Times,serif" font-size="14.00" fill="#000000">Users::DealsController</text>
<polyline fill="none" stroke="#000000" points="595,-325.5 740.083,-325.5 "/>
<text text-anchor="start" x="603" y="-310.3" font-family="Times,serif" font-size="14.00" fill="#000000">create</text>
<text text-anchor="start" x="603" y="-296.3" font-family="Times,serif" font-size="14.00" fill="#000000">destroy</text>
<text text-anchor="start" x="603" y="-282.3" font-family="Times,serif" font-size="14.00" fill="#000000">index</text>
<text text-anchor="start" x="603" y="-268.3" font-family="Times,serif" font-size="14.00" fill="#000000">new</text>
<text text-anchor="start" x="603" y="-254.3" font-family="Times,serif" font-size="14.00" fill="#000000">show</text>
<polyline fill="none" stroke="#000000" points="595,-247.5 740.083,-247.5 "/>
<polyline fill="none" stroke="#000000" points="595,-223.5 740.083,-223.5 "/>
<text text-anchor="start" x="603" y="-208.3" font-family="Times,serif" font-size="14.00" fill="#000000">_layout</text>
<text text-anchor="start" x="603" y="-194.3" font-family="Times,serif" font-size="14.00" fill="#000000">deal_params</text>
</g>
<!-- Users::InvitesController -->
<g id="node11" class="node">
<title>Users::InvitesController</title>
<path fill="none" stroke="#000000" d="M80,-306.5C80,-306.5 207.3105,-306.5 207.3105,-306.5 213.3105,-306.5 219.3105,-312.5 219.3105,-318.5 219.3105,-318.5 219.3105,-440.5 219.3105,-440.5 219.3105,-446.5 213.3105,-452.5 207.3105,-452.5 207.3105,-452.5 80,-452.5 80,-452.5 74,-452.5 68,-446.5 68,-440.5 68,-440.5 68,-318.5 68,-318.5 68,-312.5 74,-306.5 80,-306.5"/>
<text text-anchor="middle" x="143.6553" y="-437.3" font-family="Times,serif" font-size="14.00" fill="#000000">Users::InvitesController</text>
<polyline fill="none" stroke="#000000" points="68,-430.5 219.3105,-430.5 "/>
<text text-anchor="start" x="76" y="-415.3" font-family="Times,serif" font-size="14.00" fill="#000000">create</text>
<text text-anchor="start" x="76" y="-401.3" font-family="Times,serif" font-size="14.00" fill="#000000">edit</text>
<text text-anchor="start" x="76" y="-387.3" font-family="Times,serif" font-size="14.00" fill="#000000">index</text>
<text text-anchor="start" x="76" y="-373.3" font-family="Times,serif" font-size="14.00" fill="#000000">new</text>
<polyline fill="none" stroke="#000000" points="68,-366.5 219.3105,-366.5 "/>
<polyline fill="none" stroke="#000000" points="68,-342.5 219.3105,-342.5 "/>
<text text-anchor="start" x="76" y="-327.3" font-family="Times,serif" font-size="14.00" fill="#000000">_layout</text>
<text text-anchor="start" x="76" y="-313.3" font-family="Times,serif" font-size="14.00" fill="#000000">invite_params</text>
</g>
<!-- Users::ProjectsController -->
<g id="node12" class="node">
<title>Users::ProjectsController</title>
<path fill="none" stroke="#000000" d="M114,-493.5C114,-493.5 248.3105,-493.5 248.3105,-493.5 254.3105,-493.5 260.3105,-499.5 260.3105,-505.5 260.3105,-505.5 260.3105,-627.5 260.3105,-627.5 260.3105,-633.5 254.3105,-639.5 248.3105,-639.5 248.3105,-639.5 114,-639.5 114,-639.5 108,-639.5 102,-633.5 102,-627.5 102,-627.5 102,-505.5 102,-505.5 102,-499.5 108,-493.5 114,-493.5"/>
<text text-anchor="middle" x="181.1553" y="-624.3" font-family="Times,serif" font-size="14.00" fill="#000000">Users::ProjectsController</text>
<polyline fill="none" stroke="#000000" points="102,-617.5 260.3105,-617.5 "/>
<text text-anchor="start" x="110" y="-602.3" font-family="Times,serif" font-size="14.00" fill="#000000">create</text>
<text text-anchor="start" x="110" y="-588.3" font-family="Times,serif" font-size="14.00" fill="#000000">index</text>
<text text-anchor="start" x="110" y="-574.3" font-family="Times,serif" font-size="14.00" fill="#000000">new</text>
<text text-anchor="start" x="110" y="-560.3" font-family="Times,serif" font-size="14.00" fill="#000000">show</text>
<polyline fill="none" stroke="#000000" points="102,-553.5 260.3105,-553.5 "/>
<polyline fill="none" stroke="#000000" points="102,-529.5 260.3105,-529.5 "/>
<text text-anchor="start" x="110" y="-514.3" font-family="Times,serif" font-size="14.00" fill="#000000">_layout</text>
<text text-anchor="start" x="110" y="-500.3" font-family="Times,serif" font-size="14.00" fill="#000000">project_params</text>
</g>
<!-- Users::TasksController -->
<g id="node13" class="node">
<title>Users::TasksController</title>
<path fill="none" stroke="#000000" d="M301,-391.5C301,-391.5 421.8916,-391.5 421.8916,-391.5 427.8916,-391.5 433.8916,-397.5 433.8916,-403.5 433.8916,-403.5 433.8916,-567.5 433.8916,-567.5 433.8916,-573.5 427.8916,-579.5 421.8916,-579.5 421.8916,-579.5 301,-579.5 301,-579.5 295,-579.5 289,-573.5 289,-567.5 289,-567.5 289,-403.5 289,-403.5 289,-397.5 295,-391.5 301,-391.5"/>
<text text-anchor="middle" x="361.4458" y="-564.3" font-family="Times,serif" font-size="14.00" fill="#000000">Users::TasksController</text>
<polyline fill="none" stroke="#000000" points="289,-557.5 433.8916,-557.5 "/>
<text text-anchor="start" x="297" y="-542.3" font-family="Times,serif" font-size="14.00" fill="#000000">index</text>
<text text-anchor="start" x="297" y="-528.3" font-family="Times,serif" font-size="14.00" fill="#000000">destroy</text>
<text text-anchor="start" x="297" y="-514.3" font-family="Times,serif" font-size="14.00" fill="#000000">edit</text>
<text text-anchor="start" x="297" y="-500.3" font-family="Times,serif" font-size="14.00" fill="#000000">create</text>
<text text-anchor="start" x="297" y="-486.3" font-family="Times,serif" font-size="14.00" fill="#000000">new</text>
<text text-anchor="start" x="297" y="-472.3" font-family="Times,serif" font-size="14.00" fill="#000000">show</text>
<text text-anchor="start" x="297" y="-458.3" font-family="Times,serif" font-size="14.00" fill="#000000">update</text>
<polyline fill="none" stroke="#000000" points="289,-451.5 433.8916,-451.5 "/>
<polyline fill="none" stroke="#000000" points="289,-427.5 433.8916,-427.5 "/>
<text text-anchor="start" x="297" y="-412.3" font-family="Times,serif" font-size="14.00" fill="#000000">_layout</text>
<text text-anchor="start" x="297" y="-398.3" font-family="Times,serif" font-size="14.00" fill="#000000">task_params</text>
</g>
<!-- UsersController -->
<g id="node14" class="node">
<title>UsersController</title>
<path fill="none" stroke="#000000" d="M471,-136.5C471,-136.5 552.4277,-136.5 552.4277,-136.5 558.4277,-136.5 564.4277,-142.5 564.4277,-148.5 564.4277,-148.5 564.4277,-368.5 564.4277,-368.5 564.4277,-374.5 558.4277,-380.5 552.4277,-380.5 552.4277,-380.5 471,-380.5 471,-380.5 465,-380.5 459,-374.5 459,-368.5 459,-368.5 459,-148.5 459,-148.5 459,-142.5 465,-136.5 471,-136.5"/>
<text text-anchor="middle" x="511.7139" y="-365.3" font-family="Times,serif" font-size="14.00" fill="#000000">UsersController</text>
<polyline fill="none" stroke="#000000" points="459,-358.5 564.4277,-358.5 "/>
<text text-anchor="start" x="467" y="-343.3" font-family="Times,serif" font-size="14.00" fill="#000000">index</text>
<text text-anchor="start" x="467" y="-329.3" font-family="Times,serif" font-size="14.00" fill="#000000">destroy</text>
<text text-anchor="start" x="467" y="-315.3" font-family="Times,serif" font-size="14.00" fill="#000000">edit</text>
<text text-anchor="start" x="467" y="-301.3" font-family="Times,serif" font-size="14.00" fill="#000000">create</text>
<text text-anchor="start" x="467" y="-287.3" font-family="Times,serif" font-size="14.00" fill="#000000">new</text>
<text text-anchor="start" x="467" y="-273.3" font-family="Times,serif" font-size="14.00" fill="#000000">show</text>
<text text-anchor="start" x="467" y="-259.3" font-family="Times,serif" font-size="14.00" fill="#000000">update</text>
<polyline fill="none" stroke="#000000" points="459,-252.5 564.4277,-252.5 "/>
<polyline fill="none" stroke="#000000" points="459,-228.5 564.4277,-228.5 "/>
<text text-anchor="start" x="467" y="-213.3" font-family="Times,serif" font-size="14.00" fill="#000000">_layout</text>
<text text-anchor="start" x="467" y="-199.3" font-family="Times,serif" font-size="14.00" fill="#000000">admin_user</text>
<text text-anchor="start" x="467" y="-185.3" font-family="Times,serif" font-size="14.00" fill="#000000">correct_user</text>
<text text-anchor="start" x="467" y="-171.3" font-family="Times,serif" font-size="14.00" fill="#000000">logged_in_user</text>
<text text-anchor="start" x="467" y="-157.3" font-family="Times,serif" font-size="14.00" fill="#000000">select_plan</text>
<text text-anchor="start" x="467" y="-143.3" font-family="Times,serif" font-size="14.00" fill="#000000">user_params</text>
</g>
<!-- VisitorsController -->
<g id="node15" class="node">
<title>VisitorsController</title>
<path fill="none" stroke="#000000" d="M692,-561.5C692,-561.5 785.0488,-561.5 785.0488,-561.5 791.0488,-561.5 797.0488,-567.5 797.0488,-573.5 797.0488,-573.5 797.0488,-681.5 797.0488,-681.5 797.0488,-687.5 791.0488,-693.5 785.0488,-693.5 785.0488,-693.5 692,-693.5 692,-693.5 686,-693.5 680,-687.5 680,-681.5 680,-681.5 680,-573.5 680,-573.5 680,-567.5 686,-561.5 692,-561.5"/>
<text text-anchor="middle" x="738.5244" y="-678.3" font-family="Times,serif" font-size="14.00" fill="#000000">VisitorsController</text>
<polyline fill="none" stroke="#000000" points="680,-671.5 797.0488,-671.5 "/>
<text text-anchor="start" x="688" y="-656.3" font-family="Times,serif" font-size="14.00" fill="#000000">create</text>
<text text-anchor="start" x="688" y="-642.3" font-family="Times,serif" font-size="14.00" fill="#000000">index</text>
<text text-anchor="start" x="688" y="-628.3" font-family="Times,serif" font-size="14.00" fill="#000000">new</text>
<polyline fill="none" stroke="#000000" points="680,-621.5 797.0488,-621.5 "/>
<polyline fill="none" stroke="#000000" points="680,-597.5 797.0488,-597.5 "/>
<text text-anchor="start" x="688" y="-582.3" font-family="Times,serif" font-size="14.00" fill="#000000">_layout</text>
<text text-anchor="start" x="688" y="-568.3" font-family="Times,serif" font-size="14.00" fill="#000000">secure_params</text>
</g>
</g>
</svg>
