<?xml version="1.0" encoding="UTF-8" standalone="no"?>
<!DOCTYPE svg PUBLIC "-//W3C//DTD SVG 1.1//EN"
 "http://www.w3.org/Graphics/SVG/1.1/DTD/svg11.dtd">
<!-- Generated by graphviz version 2.40.1 (20161225.0304)
 -->
<!-- Title: models_diagram Pages: 1 -->
<svg width="1318pt" height="240pt"
 viewBox="0.00 0.00 1317.69 240.00" xmlns="http://www.w3.org/2000/svg" xmlns:xlink="http://www.w3.org/1999/xlink">
<g id="graph0" class="graph" transform="scale(1 1) rotate(0) translate(4 236)">
<title>models_diagram</title>
<polygon fill="transparent" stroke="transparent" points="-4,4 -4,-236 1313.6877,-236 1313.6877,4 -4,4"/>
<!-- _diagram_info -->
<g id="node1" class="node">
<title>_diagram_info</title>
<text text-anchor="start" x="8" y="-217.6" font-family="Times,serif" font-size="13.00" fill="#000000">Models diagram</text>
<text text-anchor="start" x="8" y="-204.6" font-family="Times,serif" font-size="13.00" fill="#000000">Date: Sep 29 2017 &#45; 17:27</text>
<text text-anchor="start" x="8" y="-191.6" font-family="Times,serif" font-size="13.00" fill="#000000">Migration version: 20170927222719</text>
<text text-anchor="start" x="8" y="-178.6" font-family="Times,serif" font-size="13.00" fill="#000000">Generated by RailRoady 1.5.3</text>
<text text-anchor="start" x="8" y="-165.6" font-family="Times,serif" font-size="13.00" fill="#000000">http://railroady.prestonlee.com</text>
</g>
<!-- Ability -->
<g id="node2" class="node">
<title>Ability</title>
<polygon fill="none" stroke="#000000" points="281.3577,-213.5 226.0178,-213.5 226.0178,-177.5 281.3577,-177.5 281.3577,-213.5"/>
<text text-anchor="middle" x="253.6877" y="-191.3" font-family="Times,serif" font-size="14.00" fill="#000000">Ability</text>
</g>
<!-- Account -->
<g id="node3" class="node">
<title>Account</title>
<ellipse fill="none" stroke="#000000" cx="339.6877" cy="-195.5" rx="40.1317" ry="18"/>
<text text-anchor="middle" x="339.6877" y="-191.3" font-family="Times,serif" font-size="14.00" fill="#000000">Account</text>
</g>
<!-- ApplicationRecord -->
<g id="node4" class="node">
<title>ApplicationRecord</title>
<ellipse fill="none" stroke="#000000" cx="474.6877" cy="-195.5" rx="77.2916" ry="18"/>
<text text-anchor="middle" x="474.6877" y="-191.3" font-family="Times,serif" font-size="14.00" fill="#000000">ApplicationRecord</text>
</g>
<!-- Company -->
<g id="node5" class="node">
<title>Company</title>
<ellipse fill="none" stroke="#000000" cx="614.6877" cy="-195.5" rx="44.4923" ry="18"/>
<text text-anchor="middle" x="614.6877" y="-191.3" font-family="Times,serif" font-size="14.00" fill="#000000">Company</text>
</g>
<!-- Contact -->
<g id="node6" class="node">
<title>Contact</title>
<ellipse fill="none" stroke="#000000" cx="714.6877" cy="-195.5" rx="37.7266" ry="18"/>
<text text-anchor="middle" x="714.6877" y="-191.3" font-family="Times,serif" font-size="14.00" fill="#000000">Contact</text>
</g>
<!-- Deal -->
<g id="node7" class="node">
<title>Deal</title>
<ellipse fill="none" stroke="#000000" cx="797.6877" cy="-195.5" rx="27" ry="18"/>
<text text-anchor="middle" x="797.6877" y="-191.3" font-family="Times,serif" font-size="14.00" fill="#000000">Deal</text>
</g>
<!-- Invite -->
<g id="node8" class="node">
<title>Invite</title>
<ellipse fill="none" stroke="#000000" cx="924.6877" cy="-91" rx="30.9706" ry="18"/>
<text text-anchor="middle" x="924.6877" y="-86.8" font-family="Times,serif" font-size="14.00" fill="#000000">Invite</text>
</g>
<!-- Plan -->
<g id="node9" class="node">
<title>Plan</title>
<ellipse fill="none" stroke="#000000" cx="1282.6877" cy="-91" rx="27" ry="18"/>
<text text-anchor="middle" x="1282.6877" y="-86.8" font-family="Times,serif" font-size="14.00" fill="#000000">Plan</text>
</g>
<!-- User -->
<g id="node13" class="node">
<title>User</title>
<ellipse fill="none" stroke="#000000" cx="1113.6877" cy="-195.5" rx="27" ry="18"/>
<text text-anchor="middle" x="1113.6877" y="-191.3" font-family="Times,serif" font-size="14.00" fill="#000000">User</text>
</g>
<!-- Plan&#45;&gt;User -->
<g id="edge1" class="edge">
<title>Plan&#45;&gt;User</title>
<path fill="none" stroke="#1c08b6" d="M1256.1391,-107.4789C1220.896,-126.5357 1163.1548,-155.7261 1158.6877,-159 1152.2268,-163.7352 1145.8592,-169.6522 1139.9269,-175.3348"/>
<ellipse fill="none" stroke="#1c08b6" cx="1259.779" cy="-105.4941" rx="4" ry="4"/>
<polygon fill="#1c08b6" stroke="#1c08b6" points="1139.8847,-175.3753 1129.5545,-179.0547 1136.2779,-178.8381 1132.671,-182.3009 1132.671,-182.3009 1132.671,-182.3009 1136.2779,-178.8381 1135.7876,-185.547 1139.8847,-175.3753 1139.8847,-175.3753"/>
</g>
<!-- Profile -->
<g id="node10" class="node">
<title>Profile</title>
<ellipse fill="none" stroke="#000000" cx="1192.6877" cy="-195.5" rx="33.8857" ry="18"/>
<text text-anchor="middle" x="1192.6877" y="-191.3" font-family="Times,serif" font-size="14.00" fill="#000000">Profile</text>
</g>
<!-- Project -->
<g id="node11" class="node">
<title>Project</title>
<ellipse fill="none" stroke="#000000" cx="1010.6877" cy="-91" rx="35.3129" ry="18"/>
<text text-anchor="middle" x="1010.6877" y="-86.8" font-family="Times,serif" font-size="14.00" fill="#000000">Project</text>
</g>
<!-- Task -->
<g id="node12" class="node">
<title>Task</title>
<ellipse fill="none" stroke="#000000" cx="1010.6877" cy="-18" rx="27" ry="18"/>
<text text-anchor="middle" x="1010.6877" y="-13.8" font-family="Times,serif" font-size="14.00" fill="#000000">Task</text>
</g>
<!-- Project&#45;&gt;Task -->
<g id="edge2" class="edge">
<title>Project&#45;&gt;Task</title>
<path fill="none" stroke="#f6b981" d="M1010.6877,-64.9079C1010.6877,-58.9427 1010.6877,-52.5729 1010.6877,-46.512"/>
<ellipse fill="none" stroke="#f6b981" cx="1010.6878" cy="-68.9551" rx="4" ry="4"/>
<polygon fill="#f6b981" stroke="#f6b981" points="1010.6878,-46.0904 1015.1877,-36.0903 1010.6878,-41.0904 1010.6877,-36.0904 1010.6877,-36.0904 1010.6877,-36.0904 1010.6878,-41.0904 1006.1877,-36.0904 1010.6878,-46.0904 1010.6878,-46.0904"/>
</g>
<!-- User&#45;&gt;Invite -->
<g id="edge7" class="edge">
<title>User&#45;&gt;Invite</title>
<path fill="none" stroke="#d5f55d" d="M1079.1649,-190.4406C1030.1469,-182.4771 944.2341,-165.3747 925.5774,-141 920.8076,-134.7683 919.2952,-126.7037 919.3345,-118.8775"/>
<ellipse fill="none" stroke="#d5f55d" cx="1083.3312" cy="-191.1027" rx="4" ry="4"/>
<polygon fill="#d5f55d" stroke="#d5f55d" points="919.3352,-118.8685 924.6222,-109.2614 919.7359,-113.8846 920.1367,-108.9007 920.1367,-108.9007 920.1367,-108.9007 919.7359,-113.8846 915.6512,-108.54 919.3352,-118.8685 919.3352,-118.8685"/>
<text text-anchor="middle" x="955.2429" y="-129.8" font-family="Times,serif" font-size="14.00" fill="#000000">invitations</text>
</g>
<!-- User&#45;&gt;Invite -->
<g id="edge8" class="edge">
<title>User&#45;&gt;Invite</title>
<path fill="none" stroke="#1f3044" d="M1083.2046,-182.0981C1060.7257,-171.8078 1029.6845,-156.7341 1003.8049,-141 994.8063,-135.5291 993.4605,-132.8264 984.6877,-127 975.4088,-120.8374 965.0792,-114.4708 955.6421,-108.837"/>
<ellipse fill="none" stroke="#1f3044" cx="1087.1332" cy="-183.8796" rx="4" ry="4"/>
<polygon fill="#1f3044" stroke="#1f3044" points="955.5408,-108.7772 949.22,-99.8163 951.2359,-106.234 946.931,-103.6907 946.931,-103.6907 946.931,-103.6907 951.2359,-106.234 944.6421,-107.5651 955.5408,-108.7772 955.5408,-108.7772"/>
<text text-anchor="middle" x="1038.1292" y="-129.8" font-family="Times,serif" font-size="14.00" fill="#000000">sent_invites</text>
</g>
<!-- User&#45;&gt;Plan -->
<g id="edge5" class="edge">
<title>User&#45;&gt;Plan</title>
<path fill="none" stroke="#fdcf01" d="M1126.0295,-171.8131C1130.4809,-167.2696 1135.5549,-162.7619 1140.6877,-159 1145.3958,-155.5495 1209.281,-123.3108 1249.8984,-104.4888"/>
<ellipse fill="none" stroke="#fdcf01" cx="1123.0992" cy="-175.014" rx="4" ry="4"/>
<polygon fill="#fdcf01" stroke="#fdcf01" points="1250.0832,-104.4043 1261.0488,-104.3343 1254.6296,-102.3234 1259.176,-100.2425 1259.176,-100.2425 1259.176,-100.2425 1254.6296,-102.3234 1257.3032,-96.1507 1250.0832,-104.4043 1250.0832,-104.4043"/>
</g>
<!-- User&#45;&gt;Project -->
<g id="edge6" class="edge">
<title>User&#45;&gt;Project</title>
<path fill="none" stroke="#3d25ae" d="M1103.5402,-170.5976C1096.8939,-156.5458 1087.1301,-139.378 1074.6877,-127 1066.8115,-119.1645 1056.8809,-112.4918 1047.2075,-107.0982"/>
<ellipse fill="none" stroke="#3d25ae" cx="1105.2583" cy="-174.3899" rx="4" ry="4"/>
<polygon fill="#3d25ae" stroke="#3d25ae" points="1046.9462,-106.9615 1040.1745,-98.3362 1042.5167,-104.6422 1038.0872,-102.3228 1038.0872,-102.3228 1038.0872,-102.3228 1042.5167,-104.6422 1035.9998,-106.3094 1046.9462,-106.9615 1046.9462,-106.9615"/>
</g>
<!-- Micropost -->
<g id="node16" class="node">
<title>Micropost</title>
<ellipse fill="none" stroke="#000000" cx="1110.6877" cy="-91" rx="46.4218" ry="18"/>
<text text-anchor="middle" x="1110.6877" y="-86.8" font-family="Times,serif" font-size="14.00" fill="#000000">Micropost</text>
</g>
<!-- User&#45;&gt;Micropost -->
<g id="edge3" class="edge">
<title>User&#45;&gt;Micropost</title>
<path fill="none" stroke="#c09701" d="M1112.9323,-169.1853C1112.4968,-154.0145 1111.9491,-134.9357 1111.5037,-119.4227"/>
<ellipse fill="none" stroke="#c09701" cx="1113.0504" cy="-173.2991" rx="4" ry="4"/>
<polygon fill="#c09701" stroke="#c09701" points="1111.5014,-119.3404 1115.7125,-109.2154 1111.3579,-114.3425 1111.2144,-109.3445 1111.2144,-109.3445 1111.2144,-109.3445 1111.3579,-114.3425 1106.7162,-109.4737 1111.5014,-119.3404 1111.5014,-119.3404"/>
</g>
<!-- Email -->
<g id="node17" class="node">
<title>Email</title>
<ellipse fill="none" stroke="#000000" cx="1206.6877" cy="-91" rx="31.4549" ry="18"/>
<text text-anchor="middle" x="1206.6877" y="-86.8" font-family="Times,serif" font-size="14.00" fill="#000000">Email</text>
</g>
<!-- User&#45;&gt;Email -->
<g id="edge4" class="edge">
<title>User&#45;&gt;Email</title>
<path fill="none" stroke="#7eddf3" d="M1133.2576,-173.5102C1148.6071,-156.2627 1169.9305,-132.3025 1185.6458,-114.6439"/>
<ellipse fill="none" stroke="#7eddf3" cx="1130.4717" cy="-176.6406" rx="4" ry="4"/>
<polygon fill="#7eddf3" stroke="#7eddf3" points="1185.782,-114.4908 1195.7917,-110.0123 1189.1061,-110.7558 1192.4301,-107.0207 1192.4301,-107.0207 1192.4301,-107.0207 1189.1061,-110.7558 1189.0685,-104.029 1185.782,-114.4908 1185.782,-114.4908"/>
</g>
<!-- UserGroup -->
<g id="node14" class="node">
<title>UserGroup</title>
<ellipse fill="none" stroke="#000000" cx="891.6877" cy="-195.5" rx="49.3032" ry="18"/>
<text text-anchor="middle" x="891.6877" y="-191.3" font-family="Times,serif" font-size="14.00" fill="#000000">UserGroup</text>
</g>
<!-- UserGroup&#45;&gt;Invite -->
<g id="edge9" class="edge">
<title>UserGroup&#45;&gt;Invite</title>
<path fill="none" stroke="#eadd7c" d="M895.2469,-169.3106C897.4574,-156.3433 900.8238,-140.5938 905.6877,-127 906.8663,-123.7063 908.2994,-120.3404 909.8446,-117.0533"/>
<ellipse fill="none" stroke="#eadd7c" cx="894.5886" cy="-173.4298" rx="4" ry="4"/>
<polygon fill="#eadd7c" stroke="#eadd7c" points="909.8511,-117.0404 918.3904,-110.1608 912.1145,-112.5821 914.3779,-108.1237 914.3779,-108.1237 914.3779,-108.1237 912.1145,-112.5821 910.3654,-106.0866 909.8511,-117.0404 909.8511,-117.0404"/>
</g>
<!-- Visitor -->
<g id="node15" class="node">
<title>Visitor</title>
<polygon fill="none" stroke="#000000" points="1298.7434,-213.5 1244.6321,-213.5 1244.6321,-177.5 1298.7434,-177.5 1298.7434,-213.5"/>
<text text-anchor="middle" x="1271.6877" y="-191.3" font-family="Times,serif" font-size="14.00" fill="#000000">Visitor</text>
</g>
</g>
</svg>
