<?xml version="1.0" encoding="UTF-8" standalone="no"?>
<!DOCTYPE svg PUBLIC "-//W3C//DTD SVG 1.1//EN"
 "http://www.w3.org/Graphics/SVG/1.1/DTD/svg11.dtd">
<!-- Generated by graphviz version 2.40.1 (20161225.0304)
 -->
<!-- Title: models_diagram Pages: 1 -->
<svg width="2540pt" height="692pt"
 viewBox="0.00 0.00 2539.72 692.00" xmlns="http://www.w3.org/2000/svg" xmlns:xlink="http://www.w3.org/1999/xlink">
<g id="graph0" class="graph" transform="scale(1 1) rotate(0) translate(4 688)">
<title>models_diagram</title>
<polygon fill="transparent" stroke="transparent" points="-4,4 -4,-688 2535.7156,-688 2535.7156,4 -4,4"/>
<!-- _diagram_info -->
<g id="node1" class="node">
<title>_diagram_info</title>
<text text-anchor="start" x="8" y="-564.6" font-family="Times,serif" font-size="13.00" fill="#000000">Models diagram</text>
<text text-anchor="start" x="8" y="-551.6" font-family="Times,serif" font-size="13.00" fill="#000000">Date: Sep 29 2017 &#45; 17:27</text>
<text text-anchor="start" x="8" y="-538.6" font-family="Times,serif" font-size="13.00" fill="#000000">Migration version: 20170927222719</text>
<text text-anchor="start" x="8" y="-525.6" font-family="Times,serif" font-size="13.00" fill="#000000">Generated by RailRoady 1.5.3</text>
<text text-anchor="start" x="8" y="-512.6" font-family="Times,serif" font-size="13.00" fill="#000000">http://railroady.prestonlee.com</text>
</g>
<!-- Ability -->
<g id="node2" class="node">
<title>Ability</title>
<polygon fill="none" stroke="#000000" points="225.8533,-520.5 225.8533,-564.5 281.5222,-564.5 281.5222,-520.5 225.8533,-520.5"/>
<text text-anchor="middle" x="253.6877" y="-549.3" font-family="Times,serif" font-size="14.00" fill="#000000">Ability</text>
<polyline fill="none" stroke="#000000" points="225.8533,-542.5 281.5222,-542.5 "/>
<text text-anchor="middle" x="253.6877" y="-527.3" font-family="Times,serif" font-size="14.00" fill="#000000"> </text>
</g>
<!-- Account -->
<g id="node3" class="node">
<title>Account</title>
<path fill="none" stroke="#000000" d="M311.8254,-485.5C311.8254,-485.5 535.55,-485.5 535.55,-485.5 541.55,-485.5 547.55,-491.5 547.55,-497.5 547.55,-497.5 547.55,-587.5 547.55,-587.5 547.55,-593.5 541.55,-599.5 535.55,-599.5 535.55,-599.5 311.8254,-599.5 311.8254,-599.5 305.8254,-599.5 299.8254,-593.5 299.8254,-587.5 299.8254,-587.5 299.8254,-497.5 299.8254,-497.5 299.8254,-491.5 305.8254,-485.5 311.8254,-485.5"/>
<text text-anchor="middle" x="423.6877" y="-584.3" font-family="Times,serif" font-size="14.00" fill="#000000">Account</text>
<polyline fill="none" stroke="#000000" points="299.8254,-577.5 547.55,-577.5 "/>
<text text-anchor="start" x="307.8254" y="-562.3" font-family="Times,serif" font-size="14.00" fill="#000000">id :integer</text>
<text text-anchor="start" x="307.8254" y="-548.3" font-family="Times,serif" font-size="14.00" fill="#000000">subdomain :character varying</text>
<text text-anchor="start" x="307.8254" y="-534.3" font-family="Times,serif" font-size="14.00" fill="#000000">owner :character varying</text>
<text text-anchor="start" x="307.8254" y="-520.3" font-family="Times,serif" font-size="14.00" fill="#000000">created_at :timestamp without time zone</text>
<text text-anchor="start" x="307.8254" y="-506.3" font-family="Times,serif" font-size="14.00" fill="#000000">updated_at :timestamp without time zone</text>
<text text-anchor="start" x="307.8254" y="-492.3" font-family="Times,serif" font-size="14.00" fill="#000000">owner_id :integer</text>
</g>
<!-- ApplicationRecord -->
<g id="node4" class="node">
<title>ApplicationRecord</title>
<ellipse fill="none" stroke="#000000" cx="642.6877" cy="-542.5" rx="77.2916" ry="18"/>
<text text-anchor="middle" x="642.6877" y="-538.3" font-family="Times,serif" font-size="14.00" fill="#000000">ApplicationRecord</text>
</g>
<!-- Company -->
<g id="node5" class="node">
<title>Company</title>
<path fill="none" stroke="#000000" d="M749.8254,-464.5C749.8254,-464.5 973.55,-464.5 973.55,-464.5 979.55,-464.5 985.55,-470.5 985.55,-476.5 985.55,-476.5 985.55,-608.5 985.55,-608.5 985.55,-614.5 979.55,-620.5 973.55,-620.5 973.55,-620.5 749.8254,-620.5 749.8254,-620.5 743.8254,-620.5 737.8254,-614.5 737.8254,-608.5 737.8254,-608.5 737.8254,-476.5 737.8254,-476.5 737.8254,-470.5 743.8254,-464.5 749.8254,-464.5"/>
<text text-anchor="middle" x="861.6877" y="-605.3" font-family="Times,serif" font-size="14.00" fill="#000000">Company</text>
<polyline fill="none" stroke="#000000" points="737.8254,-598.5 985.55,-598.5 "/>
<text text-anchor="start" x="745.8254" y="-583.3" font-family="Times,serif" font-size="14.00" fill="#000000">updated_at :timestamp without time zone</text>
<text text-anchor="start" x="745.8254" y="-569.3" font-family="Times,serif" font-size="14.00" fill="#000000">company :character varying</text>
<text text-anchor="start" x="745.8254" y="-555.3" font-family="Times,serif" font-size="14.00" fill="#000000">first_name :character varying</text>
<text text-anchor="start" x="745.8254" y="-541.3" font-family="Times,serif" font-size="14.00" fill="#000000">last_name :character varying</text>
<text text-anchor="start" x="745.8254" y="-527.3" font-family="Times,serif" font-size="14.00" fill="#000000">phone_number :character varying</text>
<text text-anchor="start" x="745.8254" y="-513.3" font-family="Times,serif" font-size="14.00" fill="#000000">website :character varying</text>
<text text-anchor="start" x="745.8254" y="-499.3" font-family="Times,serif" font-size="14.00" fill="#000000">email :character varying</text>
<text text-anchor="start" x="745.8254" y="-485.3" font-family="Times,serif" font-size="14.00" fill="#000000">created_at :timestamp without time zone</text>
<text text-anchor="start" x="745.8254" y="-471.3" font-family="Times,serif" font-size="14.00" fill="#000000">id :integer</text>
</g>
<!-- Contact -->
<g id="node6" class="node">
<title>Contact</title>
<path fill="none" stroke="#000000" d="M1015.8254,-485.5C1015.8254,-485.5 1239.55,-485.5 1239.55,-485.5 1245.55,-485.5 1251.55,-491.5 1251.55,-497.5 1251.55,-497.5 1251.55,-587.5 1251.55,-587.5 1251.55,-593.5 1245.55,-599.5 1239.55,-599.5 1239.55,-599.5 1015.8254,-599.5 1015.8254,-599.5 1009.8254,-599.5 1003.8254,-593.5 1003.8254,-587.5 1003.8254,-587.5 1003.8254,-497.5 1003.8254,-497.5 1003.8254,-491.5 1009.8254,-485.5 1015.8254,-485.5"/>
<text text-anchor="middle" x="1127.6877" y="-584.3" font-family="Times,serif" font-size="14.00" fill="#000000">Contact</text>
<polyline fill="none" stroke="#000000" points="1003.8254,-577.5 1251.55,-577.5 "/>
<text text-anchor="start" x="1011.8254" y="-562.3" font-family="Times,serif" font-size="14.00" fill="#000000">id :integer</text>
<text text-anchor="start" x="1011.8254" y="-548.3" font-family="Times,serif" font-size="14.00" fill="#000000">name :character varying</text>
<text text-anchor="start" x="1011.8254" y="-534.3" font-family="Times,serif" font-size="14.00" fill="#000000">email :character varying</text>
<text text-anchor="start" x="1011.8254" y="-520.3" font-family="Times,serif" font-size="14.00" fill="#000000">comments :text</text>
<text text-anchor="start" x="1011.8254" y="-506.3" font-family="Times,serif" font-size="14.00" fill="#000000">created_at :timestamp without time zone</text>
<text text-anchor="start" x="1011.8254" y="-492.3" font-family="Times,serif" font-size="14.00" fill="#000000">updated_at :timestamp without time zone</text>
</g>
<!-- Deal -->
<g id="node7" class="node">
<title>Deal</title>
<path fill="none" stroke="#000000" d="M1281.8254,-485.5C1281.8254,-485.5 1505.55,-485.5 1505.55,-485.5 1511.55,-485.5 1517.55,-491.5 1517.55,-497.5 1517.55,-497.5 1517.55,-587.5 1517.55,-587.5 1517.55,-593.5 1511.55,-599.5 1505.55,-599.5 1505.55,-599.5 1281.8254,-599.5 1281.8254,-599.5 1275.8254,-599.5 1269.8254,-593.5 1269.8254,-587.5 1269.8254,-587.5 1269.8254,-497.5 1269.8254,-497.5 1269.8254,-491.5 1275.8254,-485.5 1281.8254,-485.5"/>
<text text-anchor="middle" x="1393.6877" y="-584.3" font-family="Times,serif" font-size="14.00" fill="#000000">Deal</text>
<polyline fill="none" stroke="#000000" points="1269.8254,-577.5 1517.55,-577.5 "/>
<text text-anchor="start" x="1277.8254" y="-562.3" font-family="Times,serif" font-size="14.00" fill="#000000">id :integer</text>
<text text-anchor="start" x="1277.8254" y="-548.3" font-family="Times,serif" font-size="14.00" fill="#000000">company :character varying</text>
<text text-anchor="start" x="1277.8254" y="-534.3" font-family="Times,serif" font-size="14.00" fill="#000000">status :character varying</text>
<text text-anchor="start" x="1277.8254" y="-520.3" font-family="Times,serif" font-size="14.00" fill="#000000">value :integer</text>
<text text-anchor="start" x="1277.8254" y="-506.3" font-family="Times,serif" font-size="14.00" fill="#000000">created_at :timestamp without time zone</text>
<text text-anchor="start" x="1277.8254" y="-492.3" font-family="Times,serif" font-size="14.00" fill="#000000">updated_at :timestamp without time zone</text>
</g>
<!-- Invite -->
<g id="node8" class="node">
<title>Invite</title>
<path fill="none" stroke="#000000" d="M1547.8254,-208.5C1547.8254,-208.5 1771.55,-208.5 1771.55,-208.5 1777.55,-208.5 1783.55,-214.5 1783.55,-220.5 1783.55,-220.5 1783.55,-338.5 1783.55,-338.5 1783.55,-344.5 1777.55,-350.5 1771.55,-350.5 1771.55,-350.5 1547.8254,-350.5 1547.8254,-350.5 1541.8254,-350.5 1535.8254,-344.5 1535.8254,-338.5 1535.8254,-338.5 1535.8254,-220.5 1535.8254,-220.5 1535.8254,-214.5 1541.8254,-208.5 1547.8254,-208.5"/>
<text text-anchor="middle" x="1659.6877" y="-335.3" font-family="Times,serif" font-size="14.00" fill="#000000">Invite</text>
<polyline fill="none" stroke="#000000" points="1535.8254,-328.5 1783.55,-328.5 "/>
<text text-anchor="start" x="1543.8254" y="-313.3" font-family="Times,serif" font-size="14.00" fill="#000000">updated_at :timestamp without time zone</text>
<text text-anchor="start" x="1543.8254" y="-299.3" font-family="Times,serif" font-size="14.00" fill="#000000">email :character varying</text>
<text text-anchor="start" x="1543.8254" y="-285.3" font-family="Times,serif" font-size="14.00" fill="#000000">user_group_id :integer</text>
<text text-anchor="start" x="1543.8254" y="-271.3" font-family="Times,serif" font-size="14.00" fill="#000000">sender_id :integer</text>
<text text-anchor="start" x="1543.8254" y="-257.3" font-family="Times,serif" font-size="14.00" fill="#000000">recipient_id :integer</text>
<text text-anchor="start" x="1543.8254" y="-243.3" font-family="Times,serif" font-size="14.00" fill="#000000">token :character varying</text>
<text text-anchor="start" x="1543.8254" y="-229.3" font-family="Times,serif" font-size="14.00" fill="#000000">created_at :timestamp without time zone</text>
<text text-anchor="start" x="1543.8254" y="-215.3" font-family="Times,serif" font-size="14.00" fill="#000000">id :integer</text>
</g>
<!-- Plan -->
<g id="node9" class="node">
<title>Plan</title>
<path fill="none" stroke="#000000" d="M2180.8254,-229.5C2180.8254,-229.5 2404.55,-229.5 2404.55,-229.5 2410.55,-229.5 2416.55,-235.5 2416.55,-241.5 2416.55,-241.5 2416.55,-317.5 2416.55,-317.5 2416.55,-323.5 2410.55,-329.5 2404.55,-329.5 2404.55,-329.5 2180.8254,-329.5 2180.8254,-329.5 2174.8254,-329.5 2168.8254,-323.5 2168.8254,-317.5 2168.8254,-317.5 2168.8254,-241.5 2168.8254,-241.5 2168.8254,-235.5 2174.8254,-229.5 2180.8254,-229.5"/>
<text text-anchor="middle" x="2292.6877" y="-314.3" font-family="Times,serif" font-size="14.00" fill="#000000">Plan</text>
<polyline fill="none" stroke="#000000" points="2168.8254,-307.5 2416.55,-307.5 "/>
<text text-anchor="start" x="2176.8254" y="-292.3" font-family="Times,serif" font-size="14.00" fill="#000000">id :integer</text>
<text text-anchor="start" x="2176.8254" y="-278.3" font-family="Times,serif" font-size="14.00" fill="#000000">name :character varying</text>
<text text-anchor="start" x="2176.8254" y="-264.3" font-family="Times,serif" font-size="14.00" fill="#000000">price :numeric</text>
<text text-anchor="start" x="2176.8254" y="-250.3" font-family="Times,serif" font-size="14.00" fill="#000000">created_at :timestamp without time zone</text>
<text text-anchor="start" x="2176.8254" y="-236.3" font-family="Times,serif" font-size="14.00" fill="#000000">updated_at :timestamp without time zone</text>
</g>
<!-- User -->
<g id="node13" class="node">
<title>User</title>
<path fill="none" stroke="#000000" d="M1905.9944,-401.5C1905.9944,-401.5 2141.3811,-401.5 2141.3811,-401.5 2147.3811,-401.5 2153.3811,-407.5 2153.3811,-413.5 2153.3811,-413.5 2153.3811,-671.5 2153.3811,-671.5 2153.3811,-677.5 2147.3811,-683.5 2141.3811,-683.5 2141.3811,-683.5 1905.9944,-683.5 1905.9944,-683.5 1899.9944,-683.5 1893.9944,-677.5 1893.9944,-671.5 1893.9944,-671.5 1893.9944,-413.5 1893.9944,-413.5 1893.9944,-407.5 1899.9944,-401.5 1905.9944,-401.5"/>
<text text-anchor="middle" x="2023.6877" y="-668.3" font-family="Times,serif" font-size="14.00" fill="#000000">User</text>
<polyline fill="none" stroke="#000000" points="1893.9944,-661.5 2153.3811,-661.5 "/>
<text text-anchor="start" x="1901.9944" y="-646.3" font-family="Times,serif" font-size="14.00" fill="#000000">invite_id :integer</text>
<text text-anchor="start" x="1901.9944" y="-632.3" font-family="Times,serif" font-size="14.00" fill="#000000">name :character varying</text>
<text text-anchor="start" x="1901.9944" y="-618.3" font-family="Times,serif" font-size="14.00" fill="#000000">email :character varying</text>
<text text-anchor="start" x="1901.9944" y="-604.3" font-family="Times,serif" font-size="14.00" fill="#000000">created_at :timestamp without time zone</text>
<text text-anchor="start" x="1901.9944" y="-590.3" font-family="Times,serif" font-size="14.00" fill="#000000">updated_at :timestamp without time zone</text>
<text text-anchor="start" x="1901.9944" y="-576.3" font-family="Times,serif" font-size="14.00" fill="#000000">password_digest :character varying</text>
<text text-anchor="start" x="1901.9944" y="-562.3" font-family="Times,serif" font-size="14.00" fill="#000000">remember_digest :character varying</text>
<text text-anchor="start" x="1901.9944" y="-548.3" font-family="Times,serif" font-size="14.00" fill="#000000">admin :boolean</text>
<text text-anchor="start" x="1901.9944" y="-534.3" font-family="Times,serif" font-size="14.00" fill="#000000">activation_digest :character varying</text>
<text text-anchor="start" x="1901.9944" y="-520.3" font-family="Times,serif" font-size="14.00" fill="#000000">activated :boolean</text>
<text text-anchor="start" x="1901.9944" y="-506.3" font-family="Times,serif" font-size="14.00" fill="#000000">activated_at :timestamp without time zone</text>
<text text-anchor="start" x="1901.9944" y="-492.3" font-family="Times,serif" font-size="14.00" fill="#000000">reset_digest :character varying</text>
<text text-anchor="start" x="1901.9944" y="-478.3" font-family="Times,serif" font-size="14.00" fill="#000000">reset_sent_at :timestamp without time zone</text>
<text text-anchor="start" x="1901.9944" y="-464.3" font-family="Times,serif" font-size="14.00" fill="#000000">plan_id :integer</text>
<text text-anchor="start" x="1901.9944" y="-450.3" font-family="Times,serif" font-size="14.00" fill="#000000">stripe_customer_token :character varying</text>
<text text-anchor="start" x="1901.9944" y="-436.3" font-family="Times,serif" font-size="14.00" fill="#000000">subdomain :character varying</text>
<text text-anchor="start" x="1901.9944" y="-422.3" font-family="Times,serif" font-size="14.00" fill="#000000">task_id :integer</text>
<text text-anchor="start" x="1901.9944" y="-408.3" font-family="Times,serif" font-size="14.00" fill="#000000">id :integer</text>
</g>
<!-- Plan&#45;&gt;User -->
<g id="edge1" class="edge">
<title>Plan&#45;&gt;User</title>
<path fill="none" stroke="#b45b4e" d="M2240.4399,-335.224C2218.9713,-355.7041 2194.0238,-379.2127 2171.6877,-401 2168.175,-404.4264 2164.6226,-407.9099 2161.0444,-411.4333"/>
<ellipse fill="none" stroke="#b45b4e" cx="2243.5056" cy="-332.295" rx="4" ry="4"/>
<polygon fill="#b45b4e" stroke="#b45b4e" points="2160.7837,-411.6906 2150.506,-415.5141 2157.2257,-415.2035 2153.6676,-418.7164 2153.6676,-418.7164 2153.6676,-418.7164 2157.2257,-415.2035 2156.8292,-421.9187 2160.7837,-411.6906 2160.7837,-411.6906"/>
</g>
<!-- Profile -->
<g id="node10" class="node">
<title>Profile</title>
<path fill="none" stroke="#000000" d="M2183.2288,-436.5C2183.2288,-436.5 2448.1467,-436.5 2448.1467,-436.5 2454.1467,-436.5 2460.1467,-442.5 2460.1467,-448.5 2460.1467,-448.5 2460.1467,-636.5 2460.1467,-636.5 2460.1467,-642.5 2454.1467,-648.5 2448.1467,-648.5 2448.1467,-648.5 2183.2288,-648.5 2183.2288,-648.5 2177.2288,-648.5 2171.2288,-642.5 2171.2288,-636.5 2171.2288,-636.5 2171.2288,-448.5 2171.2288,-448.5 2171.2288,-442.5 2177.2288,-436.5 2183.2288,-436.5"/>
<text text-anchor="middle" x="2315.6877" y="-633.3" font-family="Times,serif" font-size="14.00" fill="#000000">Profile</text>
<polyline fill="none" stroke="#000000" points="2171.2288,-626.5 2460.1467,-626.5 "/>
<text text-anchor="start" x="2179.2288" y="-611.3" font-family="Times,serif" font-size="14.00" fill="#000000">avatar_updated_at :timestamp without time zone</text>
<text text-anchor="start" x="2179.2288" y="-597.3" font-family="Times,serif" font-size="14.00" fill="#000000">user_id :integer</text>
<text text-anchor="start" x="2179.2288" y="-583.3" font-family="Times,serif" font-size="14.00" fill="#000000">first_name :character varying</text>
<text text-anchor="start" x="2179.2288" y="-569.3" font-family="Times,serif" font-size="14.00" fill="#000000">last_name :character varying</text>
<text text-anchor="start" x="2179.2288" y="-555.3" font-family="Times,serif" font-size="14.00" fill="#000000">phone_number :character varying</text>
<text text-anchor="start" x="2179.2288" y="-541.3" font-family="Times,serif" font-size="14.00" fill="#000000">contact_email :character varying</text>
<text text-anchor="start" x="2179.2288" y="-527.3" font-family="Times,serif" font-size="14.00" fill="#000000">description :text</text>
<text text-anchor="start" x="2179.2288" y="-513.3" font-family="Times,serif" font-size="14.00" fill="#000000">created_at :timestamp without time zone</text>
<text text-anchor="start" x="2179.2288" y="-499.3" font-family="Times,serif" font-size="14.00" fill="#000000">updated_at :timestamp without time zone</text>
<text text-anchor="start" x="2179.2288" y="-485.3" font-family="Times,serif" font-size="14.00" fill="#000000">avatar_file_name :character varying</text>
<text text-anchor="start" x="2179.2288" y="-471.3" font-family="Times,serif" font-size="14.00" fill="#000000">avatar_content_type :character varying</text>
<text text-anchor="start" x="2179.2288" y="-457.3" font-family="Times,serif" font-size="14.00" fill="#000000">avatar_file_size :integer</text>
<text text-anchor="start" x="2179.2288" y="-443.3" font-family="Times,serif" font-size="14.00" fill="#000000">id :integer</text>
</g>
<!-- Project -->
<g id="node11" class="node">
<title>Project</title>
<path fill="none" stroke="#000000" d="M1813.946,-229.5C1813.946,-229.5 1947.4294,-229.5 1947.4294,-229.5 1953.4294,-229.5 1959.4294,-235.5 1959.4294,-241.5 1959.4294,-241.5 1959.4294,-317.5 1959.4294,-317.5 1959.4294,-323.5 1953.4294,-329.5 1947.4294,-329.5 1947.4294,-329.5 1813.946,-329.5 1813.946,-329.5 1807.946,-329.5 1801.946,-323.5 1801.946,-317.5 1801.946,-317.5 1801.946,-241.5 1801.946,-241.5 1801.946,-235.5 1807.946,-229.5 1813.946,-229.5"/>
<text text-anchor="middle" x="1880.6877" y="-314.3" font-family="Times,serif" font-size="14.00" fill="#000000">Project</text>
<polyline fill="none" stroke="#000000" points="1801.946,-307.5 1959.4294,-307.5 "/>
<text text-anchor="start" x="1809.946" y="-292.3" font-family="Times,serif" font-size="14.00" fill="#000000">id :integer</text>
<text text-anchor="start" x="1809.946" y="-278.3" font-family="Times,serif" font-size="14.00" fill="#000000">title :character varying</text>
<text text-anchor="start" x="1809.946" y="-264.3" font-family="Times,serif" font-size="14.00" fill="#000000">details :character varying</text>
<text text-anchor="start" x="1809.946" y="-250.3" font-family="Times,serif" font-size="14.00" fill="#000000">user_id :integer</text>
<text text-anchor="start" x="1809.946" y="-236.3" font-family="Times,serif" font-size="14.00" fill="#000000">task_id :integer</text>
</g>
<!-- Task -->
<g id="node12" class="node">
<title>Task</title>
<path fill="none" stroke="#000000" d="M1768.8254,-.5C1768.8254,-.5 1992.55,-.5 1992.55,-.5 1998.55,-.5 2004.55,-6.5 2004.55,-12.5 2004.55,-12.5 2004.55,-158.5 2004.55,-158.5 2004.55,-164.5 1998.55,-170.5 1992.55,-170.5 1992.55,-170.5 1768.8254,-170.5 1768.8254,-170.5 1762.8254,-170.5 1756.8254,-164.5 1756.8254,-158.5 1756.8254,-158.5 1756.8254,-12.5 1756.8254,-12.5 1756.8254,-6.5 1762.8254,-.5 1768.8254,-.5"/>
<text text-anchor="middle" x="1880.6877" y="-155.3" font-family="Times,serif" font-size="14.00" fill="#000000">Task</text>
<polyline fill="none" stroke="#000000" points="1756.8254,-148.5 2004.55,-148.5 "/>
<text text-anchor="start" x="1764.8254" y="-133.3" font-family="Times,serif" font-size="14.00" fill="#000000">user_id :integer</text>
<text text-anchor="start" x="1764.8254" y="-119.3" font-family="Times,serif" font-size="14.00" fill="#000000">title :character varying</text>
<text text-anchor="start" x="1764.8254" y="-105.3" font-family="Times,serif" font-size="14.00" fill="#000000">description :text</text>
<text text-anchor="start" x="1764.8254" y="-91.3" font-family="Times,serif" font-size="14.00" fill="#000000">status :character varying</text>
<text text-anchor="start" x="1764.8254" y="-77.3" font-family="Times,serif" font-size="14.00" fill="#000000">priority :character varying</text>
<text text-anchor="start" x="1764.8254" y="-63.3" font-family="Times,serif" font-size="14.00" fill="#000000">owner :character varying</text>
<text text-anchor="start" x="1764.8254" y="-49.3" font-family="Times,serif" font-size="14.00" fill="#000000">created_at :timestamp without time zone</text>
<text text-anchor="start" x="1764.8254" y="-35.3" font-family="Times,serif" font-size="14.00" fill="#000000">updated_at :timestamp without time zone</text>
<text text-anchor="start" x="1764.8254" y="-21.3" font-family="Times,serif" font-size="14.00" fill="#000000">project_id :integer</text>
<text text-anchor="start" x="1764.8254" y="-7.3" font-family="Times,serif" font-size="14.00" fill="#000000">id :integer</text>
</g>
<!-- Project&#45;&gt;Task -->
<g id="edge2" class="edge">
<title>Project&#45;&gt;Task</title>
<path fill="none" stroke="#5a0489" d="M1880.6877,-221.1663C1880.6877,-208.4208 1880.6877,-194.6103 1880.6877,-180.8444"/>
<ellipse fill="none" stroke="#5a0489" cx="1880.6878" cy="-225.2879" rx="4" ry="4"/>
<polygon fill="#5a0489" stroke="#5a0489" points="1880.6878,-180.8443 1885.1877,-170.8443 1880.6878,-175.8443 1880.6877,-170.8443 1880.6877,-170.8443 1880.6877,-170.8443 1880.6878,-175.8443 1876.1877,-170.8444 1880.6878,-180.8443 1880.6878,-180.8443"/>
</g>
<!-- User&#45;&gt;Invite -->
<g id="edge7" class="edge">
<title>User&#45;&gt;Invite</title>
<path fill="none" stroke="#7b9b01" d="M1886.5428,-462.6506C1848.0222,-438.4816 1806.789,-410.9085 1770.5774,-383 1760.272,-375.0576 1749.8142,-366.3258 1739.6465,-357.4052"/>
<ellipse fill="none" stroke="#7b9b01" cx="1890.3096" cy="-465.0038" rx="4" ry="4"/>
<polygon fill="#7b9b01" stroke="#7b9b01" points="1739.4121,-357.1971 1734.9233,-347.1921 1735.6736,-353.8769 1731.9351,-350.5568 1731.9351,-350.5568 1731.9351,-350.5568 1735.6736,-353.8769 1728.9469,-353.9214 1739.4121,-357.1971 1739.4121,-357.1971"/>
<text text-anchor="middle" x="1800.2429" y="-371.8" font-family="Times,serif" font-size="14.00" fill="#000000">invitations</text>
</g>
<!-- User&#45;&gt;Invite -->
<g id="edge8" class="edge">
<title>User&#45;&gt;Invite</title>
<path fill="none" stroke="#f2fedc" d="M1887.4871,-412.4134C1868.6961,-396.9646 1849.1524,-382.0673 1829.6877,-369 1816.5212,-360.1609 1810.608,-359.3811 1792.8898,-350.9316"/>
<ellipse fill="none" stroke="#f2fedc" cx="1890.7503" cy="-415.1189" rx="4" ry="4"/>
<polygon fill="#f2fedc" stroke="#f2fedc" points="1792.8106,-350.8924 1785.8475,-342.4209 1788.3302,-348.6728 1783.8499,-346.4532 1783.8499,-346.4532 1783.8499,-346.4532 1788.3302,-348.6728 1781.8522,-350.4855 1792.8106,-350.8924 1792.8106,-350.8924"/>
<text text-anchor="middle" x="1881.1292" y="-371.8" font-family="Times,serif" font-size="14.00" fill="#000000">sent_invites</text>
</g>
<!-- User&#45;&gt;Plan -->
<g id="edge5" class="edge">
<title>User&#45;&gt;Plan</title>
<path fill="none" stroke="#056db1" d="M2159.1792,-395.6615C2179.7779,-375.6944 2201.8966,-354.8975 2222.1719,-336.4712"/>
<ellipse fill="none" stroke="#056db1" cx="2156.1856" cy="-398.5724" rx="4" ry="4"/>
<polygon fill="#056db1" stroke="#056db1" points="2222.4284,-336.2392 2232.8637,-332.8694 2226.1369,-332.8855 2229.8454,-329.5318 2229.8454,-329.5318 2229.8454,-329.5318 2226.1369,-332.8855 2226.827,-326.1942 2222.4284,-336.2392 2222.4284,-336.2392"/>
</g>
<!-- User&#45;&gt;Project -->
<g id="edge6" class="edge">
<title>User&#45;&gt;Project</title>
<path fill="none" stroke="#2aa95b" d="M1943.032,-394.1612C1932.3951,-374.5981 1922.033,-355.5405 1912.9084,-338.759"/>
<ellipse fill="none" stroke="#2aa95b" cx="1945.0443" cy="-397.8622" rx="4" ry="4"/>
<polygon fill="#2aa95b" stroke="#2aa95b" points="1912.7495,-338.4666 1911.926,-327.5317 1910.3611,-334.0739 1907.9726,-329.6813 1907.9726,-329.6813 1907.9726,-329.6813 1910.3611,-334.0739 1904.0192,-331.8309 1912.7495,-338.4666 1912.7495,-338.4666"/>
</g>
<!-- Micropost -->
<g id="node16" class="node">
<title>Micropost</title>
<ellipse fill="none" stroke="#000000" cx="2023.6877" cy="-279.5" rx="46.4218" ry="18"/>
<text text-anchor="middle" x="2023.6877" y="-275.3" font-family="Times,serif" font-size="14.00" fill="#000000">Micropost</text>
</g>
<!-- User&#45;&gt;Micropost -->
<g id="edge3" class="edge">
<title>User&#45;&gt;Micropost</title>
<path fill="none" stroke="#c75371" d="M2023.6877,-393.1925C2023.6877,-360.6387 2023.6877,-329.5681 2023.6877,-308.1606"/>
<ellipse fill="none" stroke="#c75371" cx="2023.6878" cy="-397.3763" rx="4" ry="4"/>
<polygon fill="#c75371" stroke="#c75371" points="2023.6878,-307.8899 2028.1877,-297.8899 2023.6878,-302.8899 2023.6877,-297.8899 2023.6877,-297.8899 2023.6877,-297.8899 2023.6878,-302.8899 2019.1877,-297.89 2023.6878,-307.8899 2023.6878,-307.8899"/>
</g>
<!-- Email -->
<g id="node17" class="node">
<title>Email</title>
<ellipse fill="none" stroke="#000000" cx="2119.6877" cy="-279.5" rx="31.4549" ry="18"/>
<text text-anchor="middle" x="2119.6877" y="-275.3" font-family="Times,serif" font-size="14.00" fill="#000000">Email</text>
</g>
<!-- User&#45;&gt;Email -->
<g id="edge4" class="edge">
<title>User&#45;&gt;Email</title>
<path fill="none" stroke="#16d09a" d="M2078.0292,-393.627C2090.2024,-360.2777 2101.8217,-328.4456 2109.681,-306.9144"/>
<ellipse fill="none" stroke="#16d09a" cx="2076.5722" cy="-397.6188" rx="4" ry="4"/>
<polygon fill="#16d09a" stroke="#16d09a" points="2109.6904,-306.8883 2117.3466,-299.0376 2111.4049,-302.1914 2113.1194,-297.4945 2113.1194,-297.4945 2113.1194,-297.4945 2111.4049,-302.1914 2108.8922,-295.9515 2109.6904,-306.8883 2109.6904,-306.8883"/>
</g>
<!-- UserGroup -->
<g id="node14" class="node">
<title>UserGroup</title>
<path fill="none" stroke="#000000" d="M1547.8254,-506.5C1547.8254,-506.5 1771.55,-506.5 1771.55,-506.5 1777.55,-506.5 1783.55,-512.5 1783.55,-518.5 1783.55,-518.5 1783.55,-566.5 1783.55,-566.5 1783.55,-572.5 1777.55,-578.5 1771.55,-578.5 1771.55,-578.5 1547.8254,-578.5 1547.8254,-578.5 1541.8254,-578.5 1535.8254,-572.5 1535.8254,-566.5 1535.8254,-566.5 1535.8254,-518.5 1535.8254,-518.5 1535.8254,-512.5 1541.8254,-506.5 1547.8254,-506.5"/>
<text text-anchor="middle" x="1659.6877" y="-563.3" font-family="Times,serif" font-size="14.00" fill="#000000">UserGroup</text>
<polyline fill="none" stroke="#000000" points="1535.8254,-556.5 1783.55,-556.5 "/>
<text text-anchor="start" x="1543.8254" y="-541.3" font-family="Times,serif" font-size="14.00" fill="#000000">id :integer</text>
<text text-anchor="start" x="1543.8254" y="-527.3" font-family="Times,serif" font-size="14.00" fill="#000000">created_at :timestamp without time zone</text>
<text text-anchor="start" x="1543.8254" y="-513.3" font-family="Times,serif" font-size="14.00" fill="#000000">updated_at :timestamp without time zone</text>
</g>
<!-- UserGroup&#45;&gt;Invite -->
<g id="edge9" class="edge">
<title>UserGroup&#45;&gt;Invite</title>
<path fill="none" stroke="#c82ba4" d="M1659.6877,-498.4499C1659.6877,-460.9857 1659.6877,-406.1998 1659.6877,-360.8042"/>
<ellipse fill="none" stroke="#c82ba4" cx="1659.6878" cy="-502.4824" rx="4" ry="4"/>
<polygon fill="#c82ba4" stroke="#c82ba4" points="1659.6878,-360.677 1664.1877,-350.677 1659.6878,-355.677 1659.6877,-350.677 1659.6877,-350.677 1659.6877,-350.677 1659.6878,-355.677 1655.1877,-350.677 1659.6878,-360.677 1659.6878,-360.677"/>
</g>
<!-- Visitor -->
<g id="node15" class="node">
<title>Visitor</title>
<polygon fill="none" stroke="#000000" points="2477.6599,-520.5 2477.6599,-564.5 2531.7156,-564.5 2531.7156,-520.5 2477.6599,-520.5"/>
<text text-anchor="middle" x="2504.6877" y="-549.3" font-family="Times,serif" font-size="14.00" fill="#000000">Visitor</text>
<polyline fill="none" stroke="#000000" points="2477.6599,-542.5 2531.7156,-542.5 "/>
<text text-anchor="middle" x="2504.6877" y="-527.3" font-family="Times,serif" font-size="14.00" fill="#000000"> </text>
</g>
</g>
</svg>
